<svg width="24" height="45" viewBox="0 0 24 45" fill="none" xmlns="http://www.w3.org/2000/svg">
<g clip-path="url(#clip0_2986_11165)">
<path fill-rule="evenodd" clip-rule="evenodd" d="M0.565715 0.698218C0.724052 0.540391 0.912151 0.415172 1.11924 0.329734C1.32632 0.244296 1.54833 0.200317 1.77253 0.200317C1.99674 0.200317 2.21874 0.244296 2.42583 0.329734C2.63292 0.415172 2.82101 0.540391 2.97935 0.698218L23.4339 21.0354C23.5926 21.1928 23.7186 21.3798 23.8045 21.5857C23.8904 21.7916 23.9347 22.0124 23.9347 22.2353C23.9347 22.4582 23.8904 22.6789 23.8045 22.8848C23.7186 23.0907 23.5926 23.2777 23.4339 23.4352L2.97935 43.7723C2.65928 44.0906 2.22518 44.2693 1.77253 44.2693C1.31989 44.2693 0.885783 44.0906 0.565715 43.7723C0.245647 43.4541 0.0658339 43.0225 0.0658339 42.5724C0.0658339 42.1224 0.245647 41.6908 0.565715 41.3725L19.8169 22.2353L0.565715 3.098C0.406976 2.94057 0.281034 2.75356 0.195103 2.54766C0.109172 2.34176 0.0649414 2.12103 0.0649414 1.89811C0.0649414 1.67519 0.109172 1.45446 0.195103 1.24856C0.281034 1.04267 0.406976 0.855647 0.565715 0.698218Z" fill="white"/>
</g>
<defs>
<clipPath id="clip0_2986_11165">
<rect width="24" height="44.4706" fill="white"/>
</clipPath>
</defs>
</svg>
