<svg width="17" height="16" viewBox="0 0 17 16" fill="none" xmlns="http://www.w3.org/2000/svg">
<g clip-path="url(#clip0_2986_11134)">
<path d="M8.4999 2.74805L7.7829 2.01105C6.0999 0.281049 3.0139 0.878049 1.89989 3.05305C1.37689 4.07605 1.25889 5.55305 2.21389 7.43805C3.13389 9.25305 5.0479 11.427 8.4999 13.795C11.9519 11.427 13.8649 9.25305 14.7859 7.43805C15.7409 5.55205 15.6239 4.07605 15.0999 3.05305C13.9859 0.878049 10.8999 0.280049 9.2169 2.01005L8.4999 2.74805ZM8.4999 15C-6.83311 4.86805 3.77889 -3.03995 8.32389 1.14305C8.38389 1.19805 8.44289 1.25505 8.4999 1.31405C8.55632 1.2551 8.61503 1.19839 8.67589 1.14405C13.2199 -3.04195 23.8329 4.86705 8.4999 15Z" fill="#23A6F0"/>
</g>
<defs>
<clipPath id="clip0_2986_11134">
<rect width="16" height="16" fill="white" transform="translate(0.5)"/>
</clipPath>
</defs>
</svg>
